# xmcd
# 
# Track frame offsets:
#     150
#     20897
#     47380
#     67140
#     86015
#     106985
#     128862
#     157035
#     180450
#     194482
#     211337
#     231515
# 
# Disc length: 3330
# 
# Revision: 2
# Processed by: cddbd v1.5.2PL0 Copyright (c) Steve Scherf et al.
# Submitted via: fre:ac v1.0.17
# 
DISCID=ad0d000c
DTITLE=安富祖貴子 - 魂/Kon
DYEAR=2006
DGENRE=Jazz
TTITLE0=Work Song
TTITLE1=I'm A Fool To Want You
TTITLE2=Here Comes The Sun
TTITLE3=Everything Must Change
TTITLE4=My Favorite Things
TTITLE5=Just Like A Woman
TTITLE6=Smooth Operator
TTITLE7=I Loves You Porgy
TTITLE8=My Baby Just Cares For Me
TTITLE9=Hero (A.K.A. The Wind Beneath My Wings)
TTITLE10=Moanin'
TTITLE11=Tennessee Waltz
EXTD=YEAR: 2006
EXTT0=
EXTT1=
EXTT2=
EXTT3=
EXTT4=
EXTT5=
EXTT6=
EXTT7=
EXTT8=
EXTT9=
EXTT10=
EXTT11=
PLAYORDER=
